<?xml version="1.0" encoding="UTF-8" standalone="no"?>
<!DOCTYPE svg PUBLIC "-//W3C//DTD SVG 1.1//EN"
 "http://www.w3.org/Graphics/SVG/1.1/DTD/svg11.dtd">
<!-- Generated by graphviz version 2.26.3 (20100126.1600)
 -->
<!-- Title: G Pages: 1 -->
<svg width="1755pt" height="188pt"
 viewBox="0.00 0.00 1755.15 188.00" xmlns="http://www.w3.org/2000/svg" xmlns:xlink="http://www.w3.org/1999/xlink">
<g id="graph1" class="graph" transform="scale(1 1) rotate(0) translate(4 184)">
<title>G</title>
<polygon fill="white" stroke="white" points="-4,5 -4,-184 1752.15,-184 1752.15,5 -4,5"/>
<!-- github.com/nknorg/nnet/node -->
<g id="node1" class="node"><title>github.com/nknorg/nnet/node</title>
<ellipse fill="none" stroke="black" cx="992" cy="-162" rx="125.067" ry="18"/>
<text text-anchor="middle" x="992" y="-157.8" font-family="Times Roman,serif" font-size="14.00">github.com/nknorg/nnet/node</text>
</g>
<!-- github.com/nknorg/nnet/cache -->
<g id="node3" class="node"><title>github.com/nknorg/nnet/cache</title>
<ellipse fill="none" stroke="black" cx="129" cy="-90" rx="128.77" ry="18"/>
<text text-anchor="middle" x="129" y="-85.8" font-family="Times Roman,serif" font-size="14.00">github.com/nknorg/nnet/cache</text>
</g>
<!-- github.com/nknorg/nnet/node&#45;&gt;github.com/nknorg/nnet/cache -->
<g id="edge2" class="edge"><title>github.com/nknorg/nnet/node&#45;&gt;github.com/nknorg/nnet/cache</title>
<path fill="none" stroke="black" d="M875.677,-155.326C732.327,-146.642 481.394,-129.95 267,-108 255.358,-106.808 243.181,-105.423 231.088,-103.96"/>
<polygon fill="black" stroke="black" points="231.316,-100.462 220.964,-102.716 230.462,-107.409 231.316,-100.462"/>
</g>
<!-- github.com/nknorg/nnet/message -->
<g id="node5" class="node"><title>github.com/nknorg/nnet/message</title>
<ellipse fill="none" stroke="black" cx="415" cy="-90" rx="139.007" ry="18"/>
<text text-anchor="middle" x="415" y="-85.8" font-family="Times Roman,serif" font-size="14.00">github.com/nknorg/nnet/message</text>
</g>
<!-- github.com/nknorg/nnet/node&#45;&gt;github.com/nknorg/nnet/message -->
<g id="edge4" class="edge"><title>github.com/nknorg/nnet/node&#45;&gt;github.com/nknorg/nnet/message</title>
<path fill="none" stroke="black" d="M897.366,-150.191C795.365,-137.463 633.187,-117.226 525.434,-103.78"/>
<polygon fill="black" stroke="black" points="525.861,-100.307 515.504,-102.541 524.994,-107.253 525.861,-100.307"/>
</g>
<!-- github.com/nknorg/nnet/config -->
<g id="node7" class="node"><title>github.com/nknorg/nnet/config</title>
<ellipse fill="none" stroke="black" cx="703" cy="-90" rx="130.965" ry="18"/>
<text text-anchor="middle" x="703" y="-85.8" font-family="Times Roman,serif" font-size="14.00">github.com/nknorg/nnet/config</text>
</g>
<!-- github.com/nknorg/nnet/node&#45;&gt;github.com/nknorg/nnet/config -->
<g id="edge6" class="edge"><title>github.com/nknorg/nnet/node&#45;&gt;github.com/nknorg/nnet/config</title>
<path fill="none" stroke="black" d="M929.291,-146.377C884.345,-135.179 823.658,-120.06 776.444,-108.297"/>
<polygon fill="black" stroke="black" points="777.134,-104.862 766.584,-105.841 775.442,-111.655 777.134,-104.862"/>
</g>
<!-- github.com/nknorg/nnet/protobuf -->
<g id="node9" class="node"><title>github.com/nknorg/nnet/protobuf</title>
<ellipse fill="none" stroke="black" cx="992" cy="-90" rx="140.05" ry="18"/>
<text text-anchor="middle" x="992" y="-85.8" font-family="Times Roman,serif" font-size="14.00">github.com/nknorg/nnet/protobuf</text>
</g>
<!-- github.com/nknorg/nnet/node&#45;&gt;github.com/nknorg/nnet/protobuf -->
<g id="edge8" class="edge"><title>github.com/nknorg/nnet/node&#45;&gt;github.com/nknorg/nnet/protobuf</title>
<path fill="none" stroke="black" d="M992,-143.831C992,-136.131 992,-126.974 992,-118.417"/>
<polygon fill="black" stroke="black" points="995.5,-118.413 992,-108.413 988.5,-118.413 995.5,-118.413"/>
</g>
<!-- github.com/nknorg/nnet/transport -->
<g id="node11" class="node"><title>github.com/nknorg/nnet/transport</title>
<ellipse fill="none" stroke="black" cx="1291" cy="-90" rx="141.119" ry="18"/>
<text text-anchor="middle" x="1291" y="-85.8" font-family="Times Roman,serif" font-size="14.00">github.com/nknorg/nnet/transport</text>
</g>
<!-- github.com/nknorg/nnet/node&#45;&gt;github.com/nknorg/nnet/transport -->
<g id="edge10" class="edge"><title>github.com/nknorg/nnet/node&#45;&gt;github.com/nknorg/nnet/transport</title>
<path fill="none" stroke="black" d="M1056.51,-146.466C1103.01,-135.269 1165.93,-120.118 1214.89,-108.329"/>
<polygon fill="black" stroke="black" points="1215.89,-111.686 1224.8,-105.942 1214.25,-104.881 1215.89,-111.686"/>
</g>
<!-- github.com/nknorg/nnet/common -->
<g id="node13" class="node"><title>github.com/nknorg/nnet/common</title>
<ellipse fill="none" stroke="black" cx="1590" cy="-90" rx="140.091" ry="18"/>
<text text-anchor="middle" x="1590" y="-85.8" font-family="Times Roman,serif" font-size="14.00">github.com/nknorg/nnet/common</text>
</g>
<!-- github.com/nknorg/nnet/node&#45;&gt;github.com/nknorg/nnet/common -->
<g id="edge12" class="edge"><title>github.com/nknorg/nnet/node&#45;&gt;github.com/nknorg/nnet/common</title>
<path fill="none" stroke="black" d="M1088.35,-150.428C1179.27,-139.503 1319.4,-122.657 1441,-108 1452.94,-106.561 1465.42,-105.055 1477.86,-103.554"/>
<polygon fill="black" stroke="black" points="1478.3,-107.026 1487.81,-102.353 1477.46,-100.077 1478.3,-107.026"/>
</g>
<!-- github.com/nknorg/nnet/util -->
<g id="node15" class="node"><title>github.com/nknorg/nnet/util</title>
<ellipse fill="none" stroke="black" cx="1086" cy="-18" rx="119.174" ry="18"/>
<text text-anchor="middle" x="1086" y="-13.8" font-family="Times Roman,serif" font-size="14.00">github.com/nknorg/nnet/util</text>
</g>
<!-- github.com/nknorg/nnet/node&#45;&gt;github.com/nknorg/nnet/util -->
<g id="edge14" class="edge"><title>github.com/nknorg/nnet/node&#45;&gt;github.com/nknorg/nnet/util</title>
<path fill="none" stroke="black" d="M1113.19,-157.51C1319.31,-149.28 1718.03,-130.535 1739,-108 1749.9,-96.2855 1749.84,-83.7707 1739,-72 1704.31,-34.3214 1395.25,-22.9313 1215.03,-19.4894"/>
<polygon fill="black" stroke="black" points="1215.01,-15.9886 1204.95,-19.3026 1214.88,-22.9874 1215.01,-15.9886"/>
</g>
<!-- github.com/nknorg/nnet/message&#45;&gt;github.com/nknorg/nnet/util -->
<g id="edge16" class="edge"><title>github.com/nknorg/nnet/message&#45;&gt;github.com/nknorg/nnet/util</title>
<path fill="none" stroke="black" d="M515.681,-77.5063C531.51,-75.6138 547.696,-73.7206 563,-72 705.358,-55.9952 869.725,-39.3195 975.617,-28.8103"/>
<polygon fill="black" stroke="black" points="976.073,-32.2823 985.679,-27.8127 975.383,-25.3164 976.073,-32.2823"/>
</g>
</g>
</svg>
